<svg xmlns="http://www.w3.org/2000/svg" aria-hidden="true" hidden="hidden">
  <symbol id="dashboard" viewBox="0 0 24 24"><rect x="3" y="3" width="7" height="7" rx="1"/><rect x="14" y="3" width="7" height="7" rx="1"/><rect x="3" y="14" width="7" height="7" rx="1"/><rect x="14" y="14" width="7" height="7" rx="1"/></symbol>
  <symbol id="feed" viewBox="0 0 24 24"><rect x="3" y="4" width="18" height="16" rx="2"/><path d="M7 8h10M7 12h10M7 16h6"/></symbol>
  <symbol id="chat" viewBox="0 0 24 24"><path d="M21 15a4 4 0 0 1-4 4H8l-5 3V7a4 4 0 0 1 4-4h10a4 4 0 0 1 4 4z"/><path d="M8 10h8M8 14h5"/></symbol>
  <symbol id="user" viewBox="0 0 24 24"><circle cx="12" cy="8" r="4"/><path d="M4 21a8 8 0 0 1 16 0"/></symbol>
  <symbol id="orgchart" viewBox="0 0 24 24"><rect x="9" y="2" width="6" height="5" rx="1"/><rect x="2" y="17" width="6" height="5" rx="1"/><rect x="9" y="17" width="6" height="5" rx="1"/><rect x="16" y="17" width="6" height="5" rx="1"/><path d="M12 7v5M5 12h14M5 12v5M12 12v5M19 12v5"/></symbol>
  <symbol id="clients" viewBox="0 0 24 24"><path d="M3 21h18M5 21V7l7-4 7 4v14M9 9h1M14 9h1M9 13h1M14 13h1M10 21v-4h4v4"/></symbol>
  <symbol id="pipeline" viewBox="0 0 24 24"><path d="M4 5h16M4 12h10M4 19h6"/><circle cx="19" cy="12" r="2"/><circle cx="15" cy="19" r="2"/></symbol>
  <symbol id="orders" viewBox="0 0 24 24"><path d="M6 2h9l4 4v16H6z"/><path d="M14 2v5h5M9 12h6M9 16h6"/></symbol>
  <symbol id="money" viewBox="0 0 24 24"><circle cx="12" cy="12" r="9"/><path d="M15 8.5c-.7-.6-1.7-1-3-1-1.7 0-3 .9-3 2s1.1 1.8 3 2.2 3 1.1 3 2.3-1.3 2.2-3 2.2c-1.3 0-2.5-.5-3.2-1.2M12 5v14"/></symbol>
  <symbol id="products" viewBox="0 0 24 24"><path d="m12 2 9 5-9 5-9-5zM3 7v10l9 5 9-5V7M12 12v10"/></symbol>
  <symbol id="finance" viewBox="0 0 24 24"><path d="M3 10h18M5 10v9M9 10v9M15 10v9M19 10v9M3 19h18M2 22h20M12 2l10 5H2z"/></symbol>
  <symbol id="suppliers" viewBox="0 0 24 24"><path d="M3 21V8l6-3 6 3v13M15 11l6-3v13M7 11h4M7 15h4M18 13h1M18 17h1"/></symbol>
  <symbol id="purchases" viewBox="0 0 24 24"><path d="M3 4h2l2 12h11l2-8H6M9 20h.01M17 20h.01"/></symbol>
  <symbol id="bi" viewBox="0 0 24 24"><path d="M4 20V10M10 20V4M16 20v-7M22 20H2"/></symbol>
  <symbol id="sellers" viewBox="0 0 24 24"><circle cx="9" cy="8" r="4"/><path d="M2 21a7 7 0 0 1 14 0M17 8h5M19.5 5.5v5"/></symbol>
  <symbol id="settings" viewBox="0 0 24 24"><circle cx="12" cy="12" r="3"/><path d="M19.4 15a1.7 1.7 0 0 0 .3 1.9l.1.1-2.8 2.8-.1-.1a1.7 1.7 0 0 0-1.9-.3 1.7 1.7 0 0 0-1 1.6v.2h-4V21a1.7 1.7 0 0 0-1-1.6 1.7 1.7 0 0 0-1.9.3l-.1.1L4.2 17l.1-.1a1.7 1.7 0 0 0 .3-1.9A1.7 1.7 0 0 0 3 14H2.8v-4H3a1.7 1.7 0 0 0 1.6-1 1.7 1.7 0 0 0-.3-1.9L4.2 7 7 4.2l.1.1a1.7 1.7 0 0 0 1.9.3A1.7 1.7 0 0 0 10 3V2.8h4V3a1.7 1.7 0 0 0 1 1.6 1.7 1.7 0 0 0 1.9-.3l.1-.1L19.8 7l-.1.1a1.7 1.7 0 0 0-.3 1.9 1.7 1.7 0 0 0 1.6 1h.2v4H21a1.7 1.7 0 0 0-1.6 1z"/></symbol>
  <symbol id="permissions" viewBox="0 0 24 24"><path d="M12 22s8-4 8-10V5l-8-3-8 3v7c0 6 8 10 8 10z"/><path d="m9 12 2 2 4-4"/></symbol>
  <symbol id="search" viewBox="0 0 24 24"><circle cx="11" cy="11" r="7"/><path d="m20 20-4-4"/></symbol>
  <symbol id="plus" viewBox="0 0 24 24"><path d="M12 5v14M5 12h14"/></symbol>
  <symbol id="menu" viewBox="0 0 24 24"><path d="M4 6h16M4 12h16M4 18h16"/></symbol>
  <symbol id="bell" viewBox="0 0 24 24"><path d="M18 8a6 6 0 0 0-12 0c0 7-3 7-3 9h18c0-2-3-2-3-9M10 21h4"/></symbol>
  <symbol id="eye" viewBox="0 0 24 24"><path d="M2 12s4-7 10-7 10 7 10 7-4 7-10 7S2 12 2 12z"/><circle cx="12" cy="12" r="3"/></symbol>
  <symbol id="eye-off" viewBox="0 0 24 24"><path d="m3 3 18 18M10.5 5.2A10.8 10.8 0 0 1 12 5c6 0 10 7 10 7a16 16 0 0 1-2 2.8M6.6 6.6C3.8 8.4 2 12 2 12s4 7 10 7a9.8 9.8 0 0 0 4.1-.9M9.9 9.9a3 3 0 0 0 4.2 4.2"/></symbol>
  <symbol id="logout" viewBox="0 0 24 24"><path d="M10 17l5-5-5-5M15 12H3M14 3h6a1 1 0 0 1 1 1v16a1 1 0 0 1-1 1h-6"/></symbol>
  <symbol id="close" viewBox="0 0 24 24"><path d="M6 6l12 12M18 6 6 18"/></symbol>
  <symbol id="arrow-left" viewBox="0 0 24 24"><path d="m15 18-6-6 6-6"/></symbol>
  <symbol id="arrow-right" viewBox="0 0 24 24"><path d="m9 18 6-6-6-6"/></symbol>
</svg>
